<svg width="512" height="257" viewBox="0 0 512 257" fill="none" xmlns="http://www.w3.org/2000/svg">
<path d="M510.557 10C510.557 4.47716 506.08 0 500.557 0H10.0034C4.48051 0 0.00336074 4.47715 0.00336074 10V230.746C0.00336074 238.701 8.84114 243.736 15.7381 239.773C74.6236 205.936 286.782 99.454 446.488 217.738C511.049 265.554 513.354 257.11 511.664 251.769C511.123 250.06 510.557 248.327 510.557 246.535V10Z" fill="#A0E3FF"/>
<path d="M510.557 10C510.557 4.47716 506.079 0 500.557 0H9.9995C4.47665 0 -0.000500679 4.47715 -0.000500679 10V240.84C-0.000500679 241.369 0.0389045 241.898 0.190816 242.405C2.372 249.687 27.0253 302.577 258.782 138.652C327.282 90.2013 448.134 185.983 493.078 225.588C499.727 231.448 510.557 226.679 510.557 217.816V10Z" fill="#90D6FF"/>
<path d="M510.557 10C510.557 4.47715 506.079 0 500.557 0H9.9995C4.47665 0 -0.000500679 4.47715 -0.000500679 10V189.563C-0.000500679 197.923 9.6959 202.765 16.4333 197.814C59.6318 166.074 178.664 84.4559 260.284 84.5923C340.244 84.726 452.048 164.724 493.886 196.981C500.606 202.162 510.557 197.324 510.557 188.838V10Z" fill="#7FD0FF"/>
</svg>
