<svg width="199" height="199" viewBox="0 0 199 199" fill="none" xmlns="http://www.w3.org/2000/svg">
<path d="M99.5 199C73.111 199 47.8027 188.517 29.1429 169.857C10.483 151.197 0 125.889 0 99.5C0 73.111 10.483 47.8028 29.1429 29.1429C47.8027 10.483 73.1109 3.98464e-06 99.5 0L99.5 99.5L99.5 199Z" fill="#A0E3FF"/>
<path d="M99.5 199C73.111 199 47.8027 188.517 29.1429 169.857C10.483 151.197 0 125.889 0 99.5C0 73.111 10.483 47.8028 29.1429 29.1429C47.8027 10.483 73.1109 3.98464e-06 99.5 0L99.5 60.927C89.2698 60.927 79.4586 64.9909 72.2248 72.2248C64.9909 79.4586 60.927 89.2698 60.927 99.5C60.927 109.73 64.9909 119.541 72.2248 126.775C79.4586 134.009 89.2698 138.073 99.5 138.073L99.5 199Z" fill="#81D9FF"/>
<path d="M99.5 199C73.111 199 47.8027 188.517 29.1429 169.857C10.483 151.197 0 125.889 0 99.5C0 73.111 10.483 47.8028 29.1429 29.1429C47.8027 10.483 73.1109 3.98464e-06 99.5 0L99.5 31.8019C81.5453 31.8019 64.3261 38.9344 51.6302 51.6302C38.9344 64.3261 31.8019 81.5454 31.8019 99.5C31.8019 117.455 38.9344 134.674 51.6302 147.37C64.3261 160.066 81.5453 167.198 99.5 167.198L99.5 199Z" fill="#51C0FF"/>
<path d="M99.5 199C73.111 199 47.8027 188.517 29.1429 169.857C10.483 151.197 0 125.889 0 99.5C0 73.111 10.483 47.8028 29.1429 29.1429C47.8027 10.483 73.1109 3.98464e-06 99.5 0V12.6093C76.4551 12.6093 54.3541 21.7638 38.059 38.059C21.7638 54.3542 12.6093 76.4552 12.6093 99.5C12.6093 122.545 21.7638 144.646 38.059 160.941C54.3541 177.236 76.4551 186.391 99.5 186.391L99.5 199Z" fill="#00A1FF"/>
</svg>
