<svg width="50" height="52" viewBox="0 0 50 52" fill="none" xmlns="http://www.w3.org/2000/svg">
<g id="Group 129">
<path id="Vector" d="M40.8053 10.9386C39.9563 10.0453 39.0967 9.16248 38.2616 8.25522C37.6052 7.54213 36.9776 7.47364 36.1312 8.00894C32.8204 10.103 29.8794 8.8368 28.9199 4.90376C28.679 3.9166 28.1966 3.47642 27.2519 3.48175C25.6418 3.49084 24.0314 3.50024 22.4216 3.47493C21.397 3.45882 20.9041 3.94503 20.6625 4.98756C19.7839 8.77937 16.709 10.1046 13.5332 8.04646C12.6287 7.46028 11.9843 7.55331 11.2826 8.31133C10.1655 9.51799 9.02253 10.6993 7.86939 11.8688C7.17801 12.57 7.1634 13.215 7.68532 14.0829C9.70188 17.4363 8.36901 20.5982 4.66603 21.6424C4.1323 21.793 3.45672 22.6094 3.40439 23.1738C3.24079 24.9381 3.25489 26.737 3.39717 28.5053C3.44154 29.0567 4.04602 29.9248 4.5072 30.0139C7.13797 30.5224 8.39724 32.1932 8.62665 35.0623C8.33638 35.8871 8.17905 36.8042 7.72392 37.5145C7.08104 38.5179 7.24858 39.2157 8.02132 39.9793C9.11561 41.0607 10.1846 42.1722 11.2226 43.3121C11.9673 44.1299 12.6542 44.2079 13.6059 43.5968C16.7103 41.6034 19.8009 42.9382 20.6511 46.6359C20.9102 47.7624 21.4499 48.2133 22.5325 48.1822C24.091 48.1375 25.6518 48.1563 27.2113 48.1744C28.1449 48.1853 28.6593 47.8053 28.9125 46.8039C29.9138 42.8441 32.7952 41.591 36.1174 43.6621C36.9536 44.1834 37.5893 44.1451 38.2579 43.4322C39.3825 42.2331 40.5181 41.0443 41.6774 39.8818C42.4157 39.1415 42.4548 38.4753 41.8858 37.543C39.9145 34.3127 41.2727 30.943 44.8727 30.1258C45.9271 29.8864 46.3011 29.3372 46.2811 28.2889C46.2522 26.7707 46.2262 25.2494 46.2889 23.7334C46.3428 22.4292 45.9527 21.7825 44.5988 21.4985C41.4643 20.8411 40.0442 17.3758 41.6074 14.5413C42.6423 12.6649 42.6384 12.6464 40.8053 10.9386Z" fill="#171819"/>
<path id="Vector_2" d="M39 12.4114C40.5447 13.8103 41.1836 14.1456 40.2713 15.8685C38.8931 18.4712 40.1451 21.653 42.9085 22.2566C44.1021 22.5174 44.4461 23.1112 44.3985 24.3087C44.3432 25.7007 44.3662 27.0975 44.3917 28.4915C44.4093 29.4541 44.0796 29.9584 43.15 30.1781C39.9762 30.9285 38.7788 34.0226 40.5167 36.9886C41.0183 37.8446 40.9839 38.4563 40.333 39.1361C39.3109 40.2034 38.3097 41.295 37.3183 42.396C36.7289 43.0506 36.1685 43.0858 35.4312 42.6071C32.5023 40.7054 29.9621 41.856 29.0793 45.4919C28.8561 46.4114 28.4026 46.7603 27.5795 46.7503C26.2046 46.7336 24.8286 46.7164 23.4546 46.7575C22.5002 46.786 22.0244 46.372 21.796 45.3376C21.0464 41.9425 18.3217 40.7168 15.5849 42.5472C14.7458 43.1083 14.1403 43.0366 13.4837 42.2857C12.5686 41.2391 11.6262 40.2185 10.6614 39.2256C9.98018 38.5245 9.83247 37.8837 10.3992 36.9624C10.8005 36.3102 10.5 34.4114 10.5 33.4114C13.0138 32.842 16.5616 33.8385 19 33.4114C21.5438 36.1951 24.2045 36.8444 27.6183 36.0319C32.8833 34.7787 36.657 28.8664 34 22.4114C34.2615 22.1661 34.4 21.3656 34.5417 21.1332C36.2465 18.337 37.304 15.2139 39 12.4114Z" fill="#D18A47"/>
<path id="Vector_3" d="M39 12.4114C37.3375 15.2893 37.707 16.7588 36 19.5461C35.5 20.5461 34.3151 22.3967 34 22.5461C30.4073 16.1632 22.0503 14.2591 17.6773 19.5293C14.5108 23.3453 15.7794 28.8454 19 33.4114C16.6313 33.8741 13.0269 33.9533 10.5497 34.4114C10.1592 31.9996 9.04762 30.4704 6.72539 30.0049C6.31829 29.9233 5.78471 29.1288 5.74554 28.6242C5.61995 27.0056 5.6075 25.3591 5.75191 23.7442C5.7981 23.2277 6.39445 22.4804 6.86559 22.3426C10.1343 21.3868 11.3108 18.4927 9.53077 15.4234C9.07007 14.6291 9.08297 14.0387 9.69325 13.3969C10.7112 12.3265 11.7201 11.2452 12.7061 10.1408C13.3256 9.44698 13.8944 9.36183 14.6929 9.89836C17.4962 11.7821 20.2104 10.5692 20.986 7.09858C21.1993 6.14436 21.6343 5.69933 22.5388 5.71408C23.9598 5.73725 25.3814 5.72864 26.8026 5.72032C27.6365 5.71544 28.0623 6.11833 28.2749 7.02187C29.1219 10.6217 31.718 11.7807 34.6406 9.86402C35.3877 9.37406 35.9417 9.43675 36.5211 10.0894C37.2582 10.9198 38.2148 11.5094 39 12.4114Z" fill="#EFA158"/>
<path id="Vector_4" d="M32.2343 28.5624C30.8407 32.2187 27.4534 33.7342 24.2343 33.0624C21.4286 32.4768 18.0369 29.0316 18.01 25.8932C17.9858 23.0584 19.1552 20.868 21.5 19.5967C23.8341 18.3311 27.6609 18.8012 29.7343 20.5624C31.933 22.43 32.9404 25.5059 32.2343 28.5624Z" fill="#B1C5F7"/>
</g>
</svg>
