<svg width="158" height="46" viewBox="0 0 158 46" fill="none" xmlns="http://www.w3.org/2000/svg">
<path d="M1 41.5625C3.16667 43.7292 9 46.7625 15 41.5625C18.8333 38.0625 27.4 30.9625 31 30.5625C34.6 30.1625 40.5 34.3959 43 36.5625C45.3333 38.0626 51.4 39.8626 57 35.0626C62.6 30.2626 67.6667 32.3959 69.5 34.0626C71.5904 35.963 77.7 42.0626 80.5 34.0626C83.3 26.0626 92.6667 9.72924 97 2.56257C99 -0.266601 104.9 0.562572 108.5 6.56257C109 7.22924 110.169 8.06257 111 8.06257C112.118 8.06257 122 8.56257 128.5 15.0626C133.7 20.2626 139.667 29.8959 142 34.0626C142.833 35.5626 145.6 37.5626 150 33.5626C154.4 29.5626 156.5 27.5626 157 27.0626" stroke="black" stroke-width="1.5"/>
</svg>
