<svg width="849" height="650" viewBox="0 0 849 650" fill="none" xmlns="http://www.w3.org/2000/svg">
<rect width="750" height="650" rx="8" fill="#51C0FF"/>
<path d="M749.5 302C723.111 302 697.803 291.517 679.143 272.857C660.483 254.197 650 228.889 650 202.5C650 176.111 660.483 150.803 679.143 132.143C697.803 113.483 723.111 103 749.5 103L749.5 202.5V302Z" fill="#A0E3FF"/>
<path d="M749.5 302C723.111 302 697.803 291.517 679.143 272.857C660.483 254.197 650 228.889 650 202.5C650 176.111 660.483 150.803 679.143 132.143C697.803 113.483 723.111 103 749.5 103L749.5 163.927C739.27 163.927 729.459 167.991 722.225 175.225C714.991 182.459 710.927 192.27 710.927 202.5C710.927 212.73 714.991 222.541 722.225 229.775C729.459 237.009 739.27 241.073 749.5 241.073V302Z" fill="#81D9FF"/>
<path d="M749.5 302C723.111 302 697.803 291.517 679.143 272.857C660.483 254.197 650 228.889 650 202.5C650 176.111 660.483 150.803 679.143 132.143C697.803 113.483 723.111 103 749.5 103L749.5 134.802C731.545 134.802 714.326 141.934 701.63 154.63C688.934 167.326 681.802 184.545 681.802 202.5C681.802 220.455 688.934 237.674 701.63 250.37C714.326 263.066 731.545 270.198 749.5 270.198V302Z" fill="#51C0FF"/>
<path d="M749.5 302C723.111 302 697.803 291.517 679.143 272.857C660.483 254.197 650 228.889 650 202.5C650 176.111 660.483 150.803 679.143 132.143C697.803 113.483 723.111 103 749.5 103V115.609C726.455 115.609 704.354 124.764 688.059 141.059C671.764 157.354 662.609 179.455 662.609 202.5C662.609 225.545 671.764 247.646 688.059 263.941C704.354 280.236 726.455 289.391 749.5 289.391V302Z" fill="#00A1FF"/>
<path d="M99.5 594C73.111 594 47.8027 583.517 29.1429 564.857C10.483 546.197 0 520.889 0 494.5C0 468.111 10.483 442.803 29.1429 424.143C47.8027 405.483 73.1109 395 99.5 395L99.5 494.5L99.5 594Z" fill="#A0E3FF"/>
<path d="M99.5 594C73.111 594 47.8027 583.517 29.1429 564.857C10.483 546.197 0 520.889 0 494.5C0 468.111 10.483 442.803 29.1429 424.143C47.8027 405.483 73.1109 395 99.5 395L99.5 455.927C89.2698 455.927 79.4586 459.991 72.2248 467.225C64.9909 474.459 60.927 484.27 60.927 494.5C60.927 504.73 64.9909 514.541 72.2248 521.775C79.4586 529.009 89.2698 533.073 99.5 533.073L99.5 594Z" fill="#81D9FF"/>
<path d="M99.5 594C73.111 594 47.8027 583.517 29.1429 564.857C10.483 546.197 0 520.889 0 494.5C0 468.111 10.483 442.803 29.1429 424.143C47.8027 405.483 73.1109 395 99.5 395L99.5 426.802C81.5453 426.802 64.3261 433.934 51.6302 446.63C38.9344 459.326 31.8019 476.545 31.8019 494.5C31.8019 512.455 38.9344 529.674 51.6302 542.37C64.3261 555.066 81.5453 562.198 99.5 562.198L99.5 594Z" fill="#51C0FF"/>
<path d="M99.5 594C73.111 594 47.8027 583.517 29.1429 564.857C10.483 546.197 0 520.889 0 494.5C0 468.111 10.483 442.803 29.1429 424.143C47.8027 405.483 73.1109 395 99.5 395V407.609C76.4551 407.609 54.3541 416.764 38.059 433.059C21.7638 449.354 12.6093 471.455 12.6093 494.5C12.6093 517.545 21.7638 539.646 38.059 555.941C54.3541 572.236 76.4551 581.391 99.5 581.391L99.5 594Z" fill="#00A1FF"/>
<rect x="42.9961" y="17" width="667" height="593" rx="16" fill="#F5F3F3"/>
<path d="M43 32C43 23.7157 49.7157 17 58 17H246.854C246.854 17 193 58 160.5 47.5C139.543 40.7292 41.9739 57.5 89 98.5C108.349 115.37 108.642 133.5 81.3272 169.5C54.0127 205.5 43 222 43 222V32Z" fill="#51C0FF"/>
<path d="M493.5 610C556.5 638.5 433.063 630 387.5 630C341.937 630 271 628.546 271 617.5C314.5 610 340.5 569.5 387.5 590C426.113 606.842 446.5 580.5 493.5 610Z" fill="#51C0FF"/>
</svg>
