<svg width="1509" height="391" viewBox="0 0 1509 391" fill="none" xmlns="http://www.w3.org/2000/svg">
<path d="M100.959 125.461C104.331 123.999 127.099 122.867 133.243 89.6453C133.243 89.6453 117.119 70.3113 97.1855 87.7212C95.3877 89.3408 81.1303 108.717 100.959 125.461Z" fill="#FFD15D"/>
<path d="M100.225 125.321C103.154 123.712 126.071 124.105 133.053 90.124C133.053 90.124 147.416 107.764 128.966 124.454C128.966 124.454 116.725 135.324 100.225 125.321Z" fill="#FCC244"/>
<path d="M86.6504 125.089C86.6504 125.089 92.3126 126.397 100.958 125.089C100.958 125.089 109.975 131.567 121.707 128.2C135.649 124.198 137.487 108.724 137.627 108.749C137.627 108.749 139.296 96.8052 132.65 89.9686C132.65 89.9686 132.92 80.6269 130.612 74.5015C130.612 74.5015 139.682 80.2194 142.288 85.6301C142.288 85.6301 145.845 92.1665 146.798 95.9439C147.752 99.7213 148.401 100.793 147.451 111.976C146.5 123.158 135.224 132.55 132.068 134.848C128.911 137.146 121.195 141.027 107.064 139.697C107.064 139.697 96.0219 138.058 86.6504 125.089Z" fill="#FFD15D"/>
<path d="M101.151 125.096C101.151 125.096 93.1608 126.783 86.5526 125.053C86.5526 125.053 82.0448 116.446 81.2597 108.571C80.4747 100.695 84.0998 91.7118 84.0998 91.7118C84.0998 91.7118 86.9399 85.0336 91.015 80.8455C95.0902 76.6574 104.399 72.6257 104.399 72.6257C104.399 72.6257 108.586 70.5689 115.539 70.7998C122.493 71.0307 125.42 71.8513 131.55 75.1335C131.55 75.1335 133.724 82.8099 133.145 90.4578C133.145 90.4578 126.254 80.7922 111.858 81.4174C111.858 81.4174 103.129 82.2131 97.5116 88.5148C91.8943 94.8164 92.6863 97.0827 91.3605 101.651C90.0346 106.223 91.9989 113.341 93.1608 115.185C94.3226 117.028 95.6938 120.46 101.151 125.099V125.096Z" fill="#FEE076"/>
<path d="M85.7445 88.6364C85.7445 88.6364 79.6711 82.7791 78.1964 76.2463C76.7217 69.7136 74.3814 67.2616 74.3814 67.2616L71.8879 64.7111C71.8879 64.7111 68.796 62.3858 73.4161 62.6145C78.0361 62.8431 83.9242 68.7849 83.9242 68.7849C83.9242 68.7849 88.7936 74.7301 91.1873 75.4548C93.5811 76.1795 95.957 76.7283 97.2892 76.3519C97.2892 76.3519 89.2959 80.8653 85.748 88.6364H85.7445Z" fill="#FFD15D"/>
<path d="M106.195 72.2696C106.195 72.2696 105.04 64.4621 110.538 56.3602C110.538 56.3602 113.848 51.1804 113.032 46.5641C112.216 41.9478 115.323 44.9739 115.323 44.9739C115.323 44.9739 119.446 51.0547 118.48 61.1273C118.48 61.1273 117.037 66.8492 122.236 71.5193C122.236 71.5193 112.9 70.3311 106.198 72.266L106.195 72.2696Z" fill="#FFD15D"/>
<path d="M82.3229 98.3071C82.3229 98.3071 78.5737 103.413 70.8807 102.311C63.1878 101.209 58.1738 104.315 58.1738 104.315C58.1738 104.315 51.6727 107.424 58.8201 107.775C65.9675 108.126 68.5006 110.983 68.5006 110.983C68.5006 110.983 71.7772 113.601 75.7244 114.204C79.6717 114.808 82.6147 114.657 82.6147 114.657C82.6147 114.657 80.655 103.245 82.3263 98.3071H82.3229Z" fill="#FFD15D"/>
<path d="M86.6843 125.464C86.6843 125.464 87.5262 129.524 84.0709 133.399C80.6157 137.274 80.8121 135.239 76.4553 140.951C72.0985 146.663 73.7507 149.846 73.7507 149.846C73.7507 149.846 74.7014 150.392 75.3538 149.498C76.0063 148.604 78.3987 145.174 82.3871 144.179C86.3756 143.184 92.1391 141.212 94.0438 139.939C95.9486 138.665 97.0746 138.008 98.3901 136.098C98.3901 136.098 90.1794 129.983 86.6505 125.089L86.6843 125.464Z" fill="#FCC244"/>
<path d="M112.162 147.167C111.806 142.402 108.295 139.751 108.295 139.751C118.622 140.562 124.32 138.384 124.32 138.384C124.523 140.182 124.42 142.398 124.32 143.403C124.221 144.407 122.44 150.879 119.488 154.941C116.536 159.004 117.607 162.965 117.351 165.125C116.672 167.732 114.219 164.038 113.078 161.866C110.688 155.795 112.518 151.932 112.162 147.167Z" fill="#FCC244"/>
<path d="M132.709 134.354C132.709 134.354 137.822 133.177 141.842 136.852C145.862 140.527 147.471 144.155 151.888 145.448C156.305 146.741 159.816 148.376 158.734 145.486C158.734 145.486 154.777 142.342 153.275 139.471C153.275 139.471 150.29 129.678 149.214 128.639C149.214 128.639 146.713 123.565 143.881 122.113C143.881 122.113 140.722 127.346 132.709 134.351L132.709 134.354Z" fill="#FCC244"/>
<path d="M147.183 112.814C147.183 112.814 152.517 107.456 157.104 108.205C161.69 108.955 168.548 108.121 170.413 107.281C172.278 106.441 178.952 102.88 171.906 102.841C171.906 102.841 168.103 103.517 164.376 101.528C164.376 101.528 159.118 97.9637 155.614 97.1023C152.11 96.2409 150.943 95.7221 146.816 96.0758C146.816 96.0758 148.586 100.769 147.183 112.814Z" fill="#FCC244"/>
<path d="M131.773 75.4151C131.773 75.4151 138.114 69.4469 143.326 68.4623C148.538 67.4778 151.115 65.9795 152.522 64.3598C153.929 62.7401 156.445 59.2369 156.788 62.6084C157.13 65.9799 151.692 72.9869 151.692 72.9869C151.692 72.9869 146.311 77.2297 144.267 80.8139C144.267 80.8139 142.754 85.7525 143.386 87.8851C143.577 87.989 140.626 81.3607 131.769 75.4151L131.773 75.4151Z" fill="#FCC244"/>
<path d="M160.391 131.007C160.391 131.007 167.306 127.759 168.445 121.369C168.445 121.369 169.858 124.133 172.13 125.833C172.13 125.833 171.581 132.598 165.178 134.016C165.178 134.016 163.722 132.4 160.391 131.007Z" fill="#FEE076"/>
<path d="M54 76.6996C54 76.6996 60.9159 73.4522 62.0541 67.062C62.0541 67.062 63.4669 69.8259 65.7396 71.5254C65.7396 71.5254 65.1904 78.2909 58.7876 79.7089C58.7876 79.7089 57.3315 78.0924 54 76.6996Z" fill="#FEE076"/>
<path d="M80.4141 54.1688C80.4141 54.1688 86.0332 51.4945 86.958 46.2319C86.958 46.2319 89.2065 49.296 91.0531 50.6955C91.0531 50.6955 90.0187 55.8512 84.8164 57.019C84.8164 57.019 83.1209 55.3158 80.4141 54.1688Z" fill="#FEE076"/>
<path d="M164.797 133.708C164.797 133.708 168.223 136.243 169.632 139.224C169.632 139.224 172.195 132.542 178 129.509C178 129.509 175.348 128.741 172.13 125.833C172.13 125.833 171.045 132.528 164.793 133.708H164.797Z" fill="#FFD15D"/>
<path d="M58.406 79.3999C58.406 79.3999 61.8322 81.9355 63.2415 84.9162C63.2415 84.9162 65.8039 78.2347 71.6094 75.2018C71.6094 75.2018 68.9572 74.4331 65.7396 71.5254C65.7396 71.5254 64.6545 78.2208 58.4023 79.3999H58.406Z" fill="#FFD15D"/>
<path d="M83.6215 56.0199C83.6215 56.0199 86.515 58.0786 87.7348 60.54C87.7348 60.54 89.7675 54.9328 94.5583 52.3145C94.5583 52.3145 92.3367 51.7157 89.6114 49.3436C89.6114 49.3436 88.8097 54.9392 83.6185 56.0199L83.6215 56.0199Z" fill="#FFD15D"/>
<g filter="url(#filter0_d_663_2866)">
<path d="M29.201 172.796C-2.52429 177.375 6.58205 201.413 15.1009 212.86C34.4879 229.413 240.85 219.757 341.608 212.86C387.786 215.677 374.655 198.478 362.317 189.527C376.417 165.224 348.217 155.92 332.355 154.306C338.7 124.368 315.611 121.286 303.273 123.488C316.316 93.9024 290.789 82.6905 276.395 80.7827C279.773 66.6944 278.774 35.348 247.754 22.6686C216.733 9.98913 187.828 45.562 177.253 64.9334C133.19 69.8643 126.287 100.741 128.343 115.563C107.193 96.896 85.7492 117.764 77.671 130.532C32.9031 117.852 26.7044 153.425 29.201 172.796Z" fill="#D1E8F9" fill-opacity="0.5" shape-rendering="crispEdges"/>
</g>
<g filter="url(#filter1_d_663_2866)">
<path d="M293.428 303.508C260.228 294.708 267.928 312.841 275.928 323.008C296.728 334.208 479.261 325.008 567.928 319.008C590.328 314.208 572.928 305.008 561.428 301.008C565.828 268.208 534.928 271.341 518.928 277.008C524.528 251.408 493.261 249.341 476.928 251.508C465.728 223.908 431.928 235.008 416.428 244.008C397.228 224.808 375.094 247.008 366.428 260.508C340.428 245.708 332.594 271.341 331.928 286.008C297.928 272.008 292.095 291.841 293.428 303.508Z" fill="#D1E8F9" fill-opacity="0.2" shape-rendering="crispEdges"/>
</g>
<g filter="url(#filter2_d_663_2866)">
<path d="M884.638 168.868C862.025 162.427 867.27 175.698 872.719 183.138C886.886 191.335 1011.21 184.602 1071.61 180.211C1086.86 176.698 1075.01 169.965 1067.18 167.038C1070.18 143.034 1049.13 145.327 1038.23 149.474C1042.05 130.739 1020.75 129.227 1009.62 130.813C1002 110.614 978.974 118.737 968.417 125.324C955.339 111.273 940.264 127.519 934.361 137.399C916.651 126.568 911.316 145.327 910.862 156.061C887.703 145.815 883.73 160.33 884.638 168.868Z" fill="#D1E8F9" fill-opacity="0.2" shape-rendering="crispEdges"/>
</g>
<g filter="url(#filter3_d_663_2866)">
<path d="M1203.43 345.508C1170.23 336.708 1177.93 354.841 1185.93 365.008C1206.73 376.208 1389.26 367.008 1477.93 361.008C1500.33 356.208 1482.93 347.008 1471.43 343.008C1475.83 310.208 1444.93 313.341 1428.93 319.008C1434.53 293.408 1403.26 291.341 1386.93 293.508C1375.73 265.908 1341.93 277.008 1326.43 286.008C1307.23 266.808 1285.09 289.008 1276.43 302.508C1250.43 287.708 1242.59 313.341 1241.93 328.008C1207.93 314.008 1202.09 333.841 1203.43 345.508Z" fill="#D1E8F9" fill-opacity="0.2" shape-rendering="crispEdges"/>
</g>
<defs>
<filter id="filter0_d_663_2866" x="-13" y="0" width="407" height="242" filterUnits="userSpaceOnUse" color-interpolation-filters="sRGB">
<feFlood flood-opacity="0" result="BackgroundImageFix"/>
<feColorMatrix in="SourceAlpha" type="matrix" values="0 0 0 0 0 0 0 0 0 0 0 0 0 0 0 0 0 0 127 0" result="hardAlpha"/>
<feOffset/>
<feGaussianBlur stdDeviation="10"/>
<feComposite in2="hardAlpha" operator="out"/>
<feColorMatrix type="matrix" values="0 0 0 0 0.7175 0 0 0 0 0.7175 0 0 0 0 0.7175 0 0 0 0.25 0"/>
<feBlend mode="normal" in2="BackgroundImageFix" result="effect1_dropShadow_663_2866"/>
<feBlend mode="normal" in="SourceGraphic" in2="effect1_dropShadow_663_2866" result="shape"/>
</filter>
<filter id="filter1_d_663_2866" x="249" y="214" width="349.781" height="134.285" filterUnits="userSpaceOnUse" color-interpolation-filters="sRGB">
<feFlood flood-opacity="0" result="BackgroundImageFix"/>
<feColorMatrix in="SourceAlpha" type="matrix" values="0 0 0 0 0 0 0 0 0 0 0 0 0 0 0 0 0 0 127 0" result="hardAlpha"/>
<feOffset/>
<feGaussianBlur stdDeviation="10"/>
<feComposite in2="hardAlpha" operator="out"/>
<feColorMatrix type="matrix" values="0 0 0 0 0.710833 0 0 0 0 0.710833 0 0 0 0 0.710833 0 0 0 0.25 0"/>
<feBlend mode="normal" in2="BackgroundImageFix" result="effect1_dropShadow_663_2866"/>
<feBlend mode="normal" in="SourceGraphic" in2="effect1_dropShadow_663_2866" result="shape"/>
</filter>
<filter id="filter2_d_663_2866" x="848" y="98" width="251" height="109" filterUnits="userSpaceOnUse" color-interpolation-filters="sRGB">
<feFlood flood-opacity="0" result="BackgroundImageFix"/>
<feColorMatrix in="SourceAlpha" type="matrix" values="0 0 0 0 0 0 0 0 0 0 0 0 0 0 0 0 0 0 127 0" result="hardAlpha"/>
<feOffset/>
<feGaussianBlur stdDeviation="10"/>
<feComposite in2="hardAlpha" operator="out"/>
<feColorMatrix type="matrix" values="0 0 0 0 0.6775 0 0 0 0 0.6775 0 0 0 0 0.6775 0 0 0 0.25 0"/>
<feBlend mode="normal" in2="BackgroundImageFix" result="effect1_dropShadow_663_2866"/>
<feBlend mode="normal" in="SourceGraphic" in2="effect1_dropShadow_663_2866" result="shape"/>
</filter>
<filter id="filter3_d_663_2866" x="1159" y="256" width="349.781" height="134.285" filterUnits="userSpaceOnUse" color-interpolation-filters="sRGB">
<feFlood flood-opacity="0" result="BackgroundImageFix"/>
<feColorMatrix in="SourceAlpha" type="matrix" values="0 0 0 0 0 0 0 0 0 0 0 0 0 0 0 0 0 0 127 0" result="hardAlpha"/>
<feOffset/>
<feGaussianBlur stdDeviation="10"/>
<feComposite in2="hardAlpha" operator="out"/>
<feColorMatrix type="matrix" values="0 0 0 0 0.454167 0 0 0 0 0.454167 0 0 0 0 0.454167 0 0 0 0.25 0"/>
<feBlend mode="normal" in2="BackgroundImageFix" result="effect1_dropShadow_663_2866"/>
<feBlend mode="normal" in="SourceGraphic" in2="effect1_dropShadow_663_2866" result="shape"/>
</filter>
</defs>
</svg>
