<svg width="512" height="256" viewBox="0 0 512 256" fill="none" xmlns="http://www.w3.org/2000/svg">
<path d="M1.44113 10C1.44113 4.47716 5.91828 0 11.4411 0H501.438C506.961 0 511.438 4.47715 511.438 10V230.474C511.438 238.429 502.599 243.464 495.702 239.501C436.855 205.69 224.955 99.3577 65.4407 217.5C0.961888 265.255 -1.35192 256.832 0.334709 251.497C0.874867 249.788 1.44113 248.055 1.44113 246.262V10Z" fill="#A0E3FF"/>
<path d="M1.44141 10C1.44141 4.47716 5.91856 0 11.4414 0H501.441C506.964 0 511.441 4.47715 511.441 10V240.576C511.441 241.105 511.402 241.634 511.25 242.142C509.07 249.418 484.438 302.242 252.941 138.501C184.526 90.1097 63.8302 185.753 18.92 225.325C12.2703 231.185 1.44141 226.415 1.44141 217.553V10Z" fill="#90D6FF"/>
<path d="M1.44141 10C1.44141 4.47715 5.91856 0 11.4414 0H501.441C506.964 0 511.441 4.47715 511.441 10V189.333C511.441 197.694 501.746 202.536 495.008 197.585C451.842 165.87 332.96 84.3637 251.441 84.5C171.58 84.6335 59.9187 164.521 18.1122 196.752C11.3922 201.932 1.44141 197.094 1.44141 188.609V10Z" fill="#7FD0FF"/>
</svg>
