<svg width="849" height="615" viewBox="0 0 849 615" fill="none" xmlns="http://www.w3.org/2000/svg">
<path d="M749.5 285C723.111 285 697.803 274.517 679.143 255.857C660.483 237.197 650 211.889 650 185.5C650 159.111 660.483 133.803 679.143 115.143C697.803 96.483 723.111 86 749.5 86L749.5 185.5V285Z" fill="#A0E3FF"/>
<path d="M749.5 285C723.111 285 697.803 274.517 679.143 255.857C660.483 237.197 650 211.889 650 185.5C650 159.111 660.483 133.803 679.143 115.143C697.803 96.483 723.111 86 749.5 86L749.5 146.927C739.27 146.927 729.459 150.991 722.225 158.225C714.991 165.459 710.927 175.27 710.927 185.5C710.927 195.73 714.991 205.541 722.225 212.775C729.459 220.009 739.27 224.073 749.5 224.073V285Z" fill="#81D9FF"/>
<path d="M749.5 285C723.111 285 697.803 274.517 679.143 255.857C660.483 237.197 650 211.889 650 185.5C650 159.111 660.483 133.803 679.143 115.143C697.803 96.483 723.111 86 749.5 86L749.5 117.802C731.545 117.802 714.326 124.934 701.63 137.63C688.934 150.326 681.802 167.545 681.802 185.5C681.802 203.455 688.934 220.674 701.63 233.37C714.326 246.066 731.545 253.198 749.5 253.198V285Z" fill="#51C0FF"/>
<path d="M749.5 285C723.111 285 697.803 274.517 679.143 255.857C660.483 237.197 650 211.889 650 185.5C650 159.111 660.483 133.803 679.143 115.143C697.803 96.483 723.111 86 749.5 86V98.6093C726.455 98.6093 704.354 107.764 688.059 124.059C671.764 140.354 662.609 162.455 662.609 185.5C662.609 208.545 671.764 230.646 688.059 246.941C704.354 263.236 726.455 272.391 749.5 272.391V285Z" fill="#00A1FF"/>
<path d="M99.5 577C73.111 577 47.8027 566.517 29.1429 547.857C10.483 529.197 0 503.889 0 477.5C0 451.111 10.483 425.803 29.1429 407.143C47.8027 388.483 73.1109 378 99.5 378L99.5 477.5L99.5 577Z" fill="#A0E3FF"/>
<path d="M99.5 577C73.111 577 47.8027 566.517 29.1429 547.857C10.483 529.197 0 503.889 0 477.5C0 451.111 10.483 425.803 29.1429 407.143C47.8027 388.483 73.1109 378 99.5 378L99.5 438.927C89.2698 438.927 79.4586 442.991 72.2248 450.225C64.9909 457.459 60.927 467.27 60.927 477.5C60.927 487.73 64.9909 497.541 72.2248 504.775C79.4586 512.009 89.2698 516.073 99.5 516.073L99.5 577Z" fill="#81D9FF"/>
<path d="M99.5 577C73.111 577 47.8027 566.517 29.1429 547.857C10.483 529.197 0 503.889 0 477.5C0 451.111 10.483 425.803 29.1429 407.143C47.8027 388.483 73.1109 378 99.5 378L99.5 409.802C81.5453 409.802 64.3261 416.934 51.6302 429.63C38.9344 442.326 31.8019 459.545 31.8019 477.5C31.8019 495.455 38.9344 512.674 51.6302 525.37C64.3261 538.066 81.5453 545.198 99.5 545.198L99.5 577Z" fill="#51C0FF"/>
<path d="M99.5 577C73.111 577 47.8027 566.517 29.1429 547.857C10.483 529.197 0 503.889 0 477.5C0 451.111 10.483 425.803 29.1429 407.143C47.8027 388.483 73.1109 378 99.5 378V390.609C76.4551 390.609 54.3541 399.764 38.059 416.059C21.7638 432.354 12.6093 454.455 12.6093 477.5C12.6093 500.545 21.7638 522.646 38.059 538.941C54.3541 555.236 76.4551 564.391 99.5 564.391L99.5 577Z" fill="#00A1FF"/>
<path d="M43 15C43 6.71573 49.7157 0 58 0H246.854C246.854 0 193 41 160.5 30.5C139.543 23.7292 41.9739 40.5 89 81.5C108.349 98.37 108.642 116.5 81.3272 152.5C54.0127 188.5 43 205 43 205V15Z" fill="#51C0FF"/>
<path d="M493.5 593C556.5 621.5 433.063 613 387.5 613C341.937 613 271 611.546 271 600.5C314.5 593 340.5 552.5 387.5 573C426.113 589.842 446.5 563.5 493.5 593Z" fill="#51C0FF"/>
</svg>
